<mxfile host="www.draw.io" modified="2020-03-26T09:30:16.407Z" agent="Mozilla/5.0 (Macintosh; Intel Mac OS X 10_13_6) AppleWebKit/537.36 (KHTML, like Gecko) Chrome/80.0.3987.149 Safari/537.36" etag="lzPqFyfcfBaXoU-P5UeP" version="12.9.3" type="github">
  <diagram id="E8ViabuwLkAclYGLIodk" name="Page-1">
    <mxGraphModel dx="892" dy="498" grid="1" gridSize="10" guides="1" tooltips="1" connect="1" arrows="1" fold="1" page="1" pageScale="1" pageWidth="827" pageHeight="1169" math="0" shadow="0">
      <root>
        <mxCell id="0" />
        <mxCell id="1" parent="0" />
        <mxCell id="3vXqt4dd7z50oWBsv8Ku-41" value="堂食菜谱菜品&lt;br&gt;ts_pubitem" style="rounded=1;whiteSpace=wrap;html=1;" vertex="1" parent="1">
          <mxGeometry x="185" y="140" width="125" height="60" as="geometry" />
        </mxCell>
        <mxCell id="3vXqt4dd7z50oWBsv8Ku-43" value="网站展示类别&lt;br&gt;ts_fd_item_type" style="rounded=1;whiteSpace=wrap;html=1;" vertex="1" parent="1">
          <mxGeometry x="185" y="20" width="125" height="60" as="geometry" />
        </mxCell>
        <mxCell id="3vXqt4dd7z50oWBsv8Ku-57" value="" style="endArrow=none;html=1;entryX=0.5;entryY=1;entryDx=0;entryDy=0;exitX=0.5;exitY=0;exitDx=0;exitDy=0;" edge="1" parent="1" source="3vXqt4dd7z50oWBsv8Ku-41" target="3vXqt4dd7z50oWBsv8Ku-43">
          <mxGeometry width="50" height="50" relative="1" as="geometry">
            <mxPoint x="230" y="190" as="sourcePoint" />
            <mxPoint x="280" y="140" as="targetPoint" />
          </mxGeometry>
        </mxCell>
        <mxCell id="3vXqt4dd7z50oWBsv8Ku-60" value="1" style="text;html=1;align=center;verticalAlign=middle;resizable=0;points=[];autosize=1;" vertex="1" parent="1">
          <mxGeometry x="295" y="205" width="20" height="20" as="geometry" />
        </mxCell>
        <mxCell id="3vXqt4dd7z50oWBsv8Ku-62" value="必选附加项&lt;br&gt;ts_product_redfine" style="rounded=1;whiteSpace=wrap;html=1;" vertex="1" parent="1">
          <mxGeometry x="80" y="260" width="130" height="60" as="geometry" />
        </mxCell>
        <mxCell id="3vXqt4dd7z50oWBsv8Ku-63" value="" style="endArrow=none;html=1;entryX=0.176;entryY=1.033;entryDx=0;entryDy=0;exitX=0.75;exitY=0;exitDx=0;exitDy=0;entryPerimeter=0;" edge="1" parent="1" source="3vXqt4dd7z50oWBsv8Ku-62" target="3vXqt4dd7z50oWBsv8Ku-41">
          <mxGeometry width="50" height="50" relative="1" as="geometry">
            <mxPoint x="230" y="310" as="sourcePoint" />
            <mxPoint x="280" y="260" as="targetPoint" />
          </mxGeometry>
        </mxCell>
        <mxCell id="3vXqt4dd7z50oWBsv8Ku-64" value="1" style="text;html=1;align=center;verticalAlign=middle;resizable=0;points=[];autosize=1;" vertex="1" parent="1">
          <mxGeometry x="204" y="205" width="20" height="20" as="geometry" />
        </mxCell>
        <mxCell id="3vXqt4dd7z50oWBsv8Ku-73" value="必选附加产品&lt;br&gt;ts_product_additional" style="rounded=1;whiteSpace=wrap;html=1;" vertex="1" parent="1">
          <mxGeometry x="295" y="260" width="140" height="60" as="geometry" />
        </mxCell>
        <mxCell id="3vXqt4dd7z50oWBsv8Ku-74" value="" style="endArrow=none;html=1;entryX=0.25;entryY=0;entryDx=0;entryDy=0;exitX=0.33;exitY=-0.07;exitDx=0;exitDy=0;exitPerimeter=0;" edge="1" parent="1" source="3vXqt4dd7z50oWBsv8Ku-60" target="3vXqt4dd7z50oWBsv8Ku-73">
          <mxGeometry width="50" height="50" relative="1" as="geometry">
            <mxPoint x="480" y="290" as="sourcePoint" />
            <mxPoint x="530" y="240" as="targetPoint" />
          </mxGeometry>
        </mxCell>
        <mxCell id="3vXqt4dd7z50oWBsv8Ku-83" value="N" style="text;html=1;align=center;verticalAlign=middle;resizable=0;points=[];autosize=1;" vertex="1" parent="1">
          <mxGeometry x="190" y="240" width="20" height="20" as="geometry" />
        </mxCell>
        <mxCell id="3vXqt4dd7z50oWBsv8Ku-84" value="N" style="text;html=1;align=center;verticalAlign=middle;resizable=0;points=[];autosize=1;" vertex="1" parent="1">
          <mxGeometry x="330" y="240" width="20" height="20" as="geometry" />
        </mxCell>
        <mxCell id="3vXqt4dd7z50oWBsv8Ku-96" value="扫码菜谱菜品&lt;br&gt;ts_scan_pubitem" style="rounded=1;whiteSpace=wrap;html=1;" vertex="1" parent="1">
          <mxGeometry x="620" y="20" width="135" height="60" as="geometry" />
        </mxCell>
        <mxCell id="3vXqt4dd7z50oWBsv8Ku-106" value="区域菜谱菜品&lt;br&gt;ts_area_pubitem" style="rounded=1;whiteSpace=wrap;html=1;" vertex="1" parent="1">
          <mxGeometry x="620" y="150" width="135" height="60" as="geometry" />
        </mxCell>
        <mxCell id="3vXqt4dd7z50oWBsv8Ku-107" value="门店区域&lt;br&gt;ts_store_arear" style="rounded=1;whiteSpace=wrap;html=1;" vertex="1" parent="1">
          <mxGeometry x="620" y="260" width="135" height="60" as="geometry" />
        </mxCell>
        <mxCell id="3vXqt4dd7z50oWBsv8Ku-108" value="" style="endArrow=classic;html=1;" edge="1" parent="1">
          <mxGeometry width="50" height="50" relative="1" as="geometry">
            <mxPoint x="688" y="210" as="sourcePoint" />
            <mxPoint x="688" y="260" as="targetPoint" />
          </mxGeometry>
        </mxCell>
        <mxCell id="3vXqt4dd7z50oWBsv8Ku-111" value="集团菜品&lt;br&gt;t_food" style="rounded=1;whiteSpace=wrap;html=1;" vertex="1" parent="1">
          <mxGeometry x="414" y="100" width="120" height="60" as="geometry" />
        </mxCell>
        <mxCell id="3vXqt4dd7z50oWBsv8Ku-112" value="" style="endArrow=classic;html=1;exitX=1;exitY=0.5;exitDx=0;exitDy=0;entryX=0;entryY=0.5;entryDx=0;entryDy=0;" edge="1" parent="1" source="3vXqt4dd7z50oWBsv8Ku-41" target="3vXqt4dd7z50oWBsv8Ku-111">
          <mxGeometry width="50" height="50" relative="1" as="geometry">
            <mxPoint x="380" y="190" as="sourcePoint" />
            <mxPoint x="430" y="140" as="targetPoint" />
          </mxGeometry>
        </mxCell>
        <mxCell id="3vXqt4dd7z50oWBsv8Ku-113" value="" style="endArrow=classic;html=1;exitX=0;exitY=0.5;exitDx=0;exitDy=0;entryX=1;entryY=1;entryDx=0;entryDy=0;" edge="1" parent="1" source="3vXqt4dd7z50oWBsv8Ku-106" target="3vXqt4dd7z50oWBsv8Ku-111">
          <mxGeometry width="50" height="50" relative="1" as="geometry">
            <mxPoint x="380" y="190" as="sourcePoint" />
            <mxPoint x="430" y="140" as="targetPoint" />
          </mxGeometry>
        </mxCell>
        <mxCell id="3vXqt4dd7z50oWBsv8Ku-114" value="" style="endArrow=classic;html=1;entryX=1;entryY=0;entryDx=0;entryDy=0;exitX=0;exitY=0.5;exitDx=0;exitDy=0;" edge="1" parent="1" source="3vXqt4dd7z50oWBsv8Ku-96" target="3vXqt4dd7z50oWBsv8Ku-111">
          <mxGeometry width="50" height="50" relative="1" as="geometry">
            <mxPoint x="380" y="190" as="sourcePoint" />
            <mxPoint x="430" y="140" as="targetPoint" />
          </mxGeometry>
        </mxCell>
      </root>
    </mxGraphModel>
  </diagram>
</mxfile>
